<svg width="200" height="200" viewBox="0 0 200 200" fill="none" xmlns="http://www.w3.org/2000/svg">
<path d="M141.666 29.1677C141.666 28.0627 141.227 27.0028 140.446 26.2214C139.665 25.44 138.605 25.0011 137.5 25.0011H116.666C106.176 24.4785 95.9046 28.1293 88.0973 35.1559C80.29 42.1825 75.5812 52.0135 74.9997 62.5011V85.0011H54.1663C53.0613 85.0011 52.0015 85.4401 51.2201 86.2215C50.4387 87.0029 49.9997 88.0627 49.9997 89.1677V110.834C49.9997 111.939 50.4387 112.999 51.2201 113.781C52.0015 114.562 53.0613 115.001 54.1663 115.001H74.9997V170.834C74.9997 171.939 75.4386 172.999 76.22 173.781C77.0014 174.562 78.0613 175.001 79.1663 175.001H104.166C105.271 175.001 106.331 174.562 107.113 173.781C107.894 172.999 108.333 171.939 108.333 170.834V115.001H130.166C131.093 115.014 131.997 114.718 132.737 114.16C133.477 113.602 134.009 112.813 134.25 111.918L140.25 90.2511C140.415 89.6354 140.438 88.9899 140.315 88.3643C140.192 87.7387 139.927 87.1496 139.541 86.6425C139.154 86.1353 138.657 85.7236 138.086 85.439C137.515 85.1545 136.887 85.0046 136.25 85.0011H108.333V62.5011C108.54 60.4384 109.509 58.527 111.05 57.1402C112.591 55.7533 114.593 54.9907 116.666 55.0011H137.5C138.605 55.0011 139.665 54.5621 140.446 53.7807C141.227 52.9993 141.666 51.9395 141.666 50.8344V29.1677Z" fill="#231F20"/>
</svg>
