<svg width="200" height="200" viewBox="0 0 200 200" fill="none" xmlns="http://www.w3.org/2000/svg">
<path d="M99.9999 8.33318C75.9454 8.08875 52.778 17.4049 35.5893 34.2342C18.4006 51.0635 8.59703 74.0289 8.33319 98.0832C8.42588 117.093 14.5411 135.584 25.8004 150.901C37.0597 166.218 52.8838 177.572 70.9999 183.333C75.5832 184.167 77.2499 181.417 77.2499 179C77.2499 176.583 77.2499 171.25 77.2499 163.75C51.7499 169.167 46.3332 151.75 46.3332 151.75C44.6357 146.282 41.0268 141.609 36.1665 138.583C27.8332 133.083 36.8332 133.167 36.8332 133.167C39.7136 133.552 42.4695 134.584 44.8941 136.186C47.3187 137.788 49.3492 139.918 50.8332 142.417C53.4193 146.901 57.6626 150.191 62.6499 151.578C67.6373 152.965 72.9698 152.338 77.4999 149.833C77.9657 145.27 80.0323 141.019 83.3332 137.833C62.9999 135.583 41.6665 127.917 41.6665 93.4999C41.4847 84.5222 44.8019 75.8258 50.9165 69.2499C48.1318 61.5421 48.4606 53.0525 51.8332 45.5832C51.8332 45.5832 59.5832 43.1665 76.8332 54.7499C91.849 50.7485 107.651 50.7485 122.667 54.7499C140.167 43.1665 147.667 45.5832 147.667 45.5832C151.039 53.0525 151.368 61.5421 148.583 69.2499C154.84 75.7053 158.337 84.3433 158.333 93.3332C158.333 127.833 136.833 135.417 116.667 137.667C118.875 139.81 120.58 142.417 121.661 145.299C122.742 148.181 123.171 151.266 122.917 154.333V178.917C122.917 178.917 124.583 184.167 129.167 183.25C147.231 177.453 163.002 166.096 174.226 150.801C185.451 135.506 191.555 117.055 191.667 98.0832C191.403 74.0289 181.599 51.0635 164.41 34.2342C147.222 17.4049 124.054 8.08875 99.9999 8.33318" fill="#231F20"/>
</svg>
