<svg width="200" height="153" viewBox="0 0 200 153" fill="none" xmlns="http://www.w3.org/2000/svg">
<path d="M67.3333 166.667C79.6557 167.08 91.9358 165.018 103.448 160.603C114.96 156.189 125.47 149.511 134.357 140.966C143.245 132.42 150.329 122.18 155.191 110.85C160.054 99.5198 162.596 87.33 162.667 75.0008C168.314 68.0126 172.507 59.9661 175 51.3341C175.186 50.6522 175.171 49.9309 174.957 49.2573C174.742 48.5836 174.338 47.9863 173.792 47.5372C173.246 47.0881 172.582 46.8064 171.88 46.726C171.177 46.6457 170.467 46.77 169.833 47.0841C166.879 48.5063 163.553 48.9656 160.324 48.3975C157.094 47.8294 154.125 46.2625 151.833 43.9175C148.908 40.714 145.369 38.1302 141.427 36.3194C137.485 34.5085 133.219 33.5074 128.883 33.3753C124.547 33.2432 120.228 33.9828 116.183 35.5503C112.138 37.1178 108.448 39.4813 105.333 42.5008C101.068 46.6313 97.9443 51.7949 96.265 57.4898C94.5858 63.1846 94.4083 69.2171 95.7499 75.0008C67.8333 76.6675 48.6666 63.4175 33.3333 45.2508C32.8726 44.7292 32.2701 44.3529 31.5991 44.1681C30.9282 43.9832 30.218 43.9977 29.5552 44.2098C28.8923 44.4219 28.3056 44.8224 27.8667 45.3625C27.4277 45.9025 27.1555 46.5586 27.0833 47.2508C24.1622 63.4543 26.2694 80.1637 33.1218 95.1347C39.9742 110.106 51.2436 122.621 65.4166 131.001C55.9136 141.899 42.5684 148.706 28.1666 150.001C27.395 150.129 26.6828 150.495 26.1295 151.048C25.5763 151.6 25.2097 152.312 25.0811 153.084C24.9526 153.855 25.0684 154.648 25.4125 155.35C25.7565 156.052 26.3116 156.63 26.9999 157.001C39.5293 163.262 53.3269 166.569 67.3333 166.667" fill="#231F20"/>
</svg>
