<svg width="200" height="200" viewBox="0 0 200 200" fill="none" xmlns="http://www.w3.org/2000/svg">
<path opacity="0.3" d="M100 33.3334C63.25 33.3334 33.3333 63.25 33.3333 100C33.3333 136.75 63.25 166.667 100 166.667C136.75 166.667 166.667 136.75 166.667 100C166.667 63.25 136.75 33.3334 100 33.3334ZM116.75 116.75L54.1667 145.833L83.25 83.25L145.833 54.1667L116.75 116.75Z" fill="black"/>
<path d="M100 16.6666C54 16.6666 16.6667 54 16.6667 100C16.6667 146 54 183.333 100 183.333C146 183.333 183.333 146 183.333 100C183.333 54 146 16.6666 100 16.6666ZM100 166.667C63.25 166.667 33.3333 136.75 33.3333 100C33.3333 63.25 63.25 33.3333 100 33.3333C136.75 33.3333 166.667 63.25 166.667 100C166.667 136.75 136.75 166.667 100 166.667ZM54.1667 145.833L116.75 116.75L145.833 54.1666L83.25 83.25L54.1667 145.833ZM100 90.8333C105.083 90.8333 109.167 94.9166 109.167 100C109.167 105.083 105.083 109.167 100 109.167C94.9167 109.167 90.8333 105.083 90.8333 100C90.8333 94.9166 94.9167 90.8333 100 90.8333Z" fill="black"/>
</svg>
